# xmcd
#
# Track frame offsets: 
#        150
#        17495
#        32142
#        52787
#        71212
#        87407
#        111227
#        124922
#        139082
#        152952
#        181150
#
# Disc length: 2592 seconds
#
# Revision: 0
# Processed by: cddbd v1.5.1PL0 Copyright (c) Steve Scherf et al.
# Submitted via: ExactAudioCopy v0.95a5
#
DISCID=930a1e0b
DTITLE=Erica Guerin - Get Real
DYEAR=1997
DGENRE=Blues
TTITLE0=You Can't Drive Me Away
TTITLE1=Get Real
TTITLE2=That's How It Will Be
TTITLE3=Uneasy Street
TTITLE4=Take Away Your Trash
TTITLE5=Last To Know
TTITLE6=Mama, He Treats Your Daughter Mean
TTITLE7=What I'd Do To Get Your Love Back
TTITLE8=Something You Got
TTITLE9=The Sun Shines On Everyone
TTITLE10=First Thing I Want ... Last Thing I Need
EXTD=
EXTT0=
EXTT1=
EXTT2=
EXTT3=
EXTT4=
EXTT5=
EXTT6=
EXTT7=
EXTT8=
EXTT9=
EXTT10=
PLAYORDER=
